<?xml version="1.0" encoding="utf-8"?>
<!-- created with bpmn-js / http://bpmn.io -->
<!DOCTYPE svg PUBLIC "-//W3C//DTD SVG 1.1//EN" "http://www.w3.org/Graphics/SVG/1.1/DTD/svg11.dtd">
<svg xmlns="http://www.w3.org/2000/svg" xmlns:xlink="http://www.w3.org/1999/xlink" width="1418" height="262" viewBox="-81 169 1418 262" version="1.1"><defs><marker id="sequenceflow-end" viewBox="0 0 20 20" refX="11" refY="10" markerWidth="10" markerHeight="10" orient="auto"><path d="M 1 5 L 11 10 L 1 15 Z" style="fill: black; stroke-width: 1px; stroke-linecap: round; stroke-dasharray: 10000, 1;"></path></marker><marker id="messageflow-start" viewBox="0 0 20 20" refX="6" refY="6" markerWidth="20" markerHeight="20" orient="auto"><circle cx="6" cy="6" r="3.5" style="fill: white; stroke-width: 1px; stroke-linecap: round; stroke-dasharray: 10000, 1; stroke: black;"></circle></marker><marker id="messageflow-end" viewBox="0 0 20 20" refX="8.5" refY="5" markerWidth="20" markerHeight="20" orient="auto"><path d="m 1 5 l 0 -3 l 7 3 l -7 3 z" style="fill: white; stroke-width: 1px; stroke-linecap: butt; stroke-dasharray: 10000, 1; stroke: black;"></path></marker><marker id="association-start" viewBox="0 0 20 20" refX="1" refY="10" markerWidth="10" markerHeight="10" orient="auto"><path d="M 11 5 L 1 10 L 11 15" style="fill: none; stroke-width: 1.5px; stroke-linecap: round; stroke-dasharray: 10000, 1; stroke: black;"></path></marker><marker id="association-end" viewBox="0 0 20 20" refX="12" refY="10" markerWidth="10" markerHeight="10" orient="auto"><path d="M 1 5 L 11 10 L 1 15" style="fill: none; stroke-width: 1.5px; stroke-linecap: round; stroke-dasharray: 10000, 1; stroke: black;"></path></marker><marker id="conditional-flow-marker" viewBox="0 0 20 20" refX="-1" refY="10" markerWidth="10" markerHeight="10" orient="auto"><path d="M 0 10 L 8 6 L 16 10 L 8 14 Z" style="fill: white; stroke-width: 1px; stroke-linecap: round; stroke-dasharray: 10000, 1; stroke: black;"></path></marker><marker id="conditional-default-flow-marker" viewBox="0 0 20 20" refX="-5" refY="10" markerWidth="10" markerHeight="10" orient="auto"><path d="M 1 4 L 5 16" style="fill: black; stroke-width: 1px; stroke-linecap: round; stroke-dasharray: 10000, 1; stroke: black;"></path></marker></defs><g class="djs-group"><g class="djs-element djs-shape" data-element-id="Participant_1li2dmg" style="display: block;" transform="translate(-75 175)"><g class="djs-visual"><rect x="0" y="0" width="1406" height="250" rx="0" ry="0" style="stroke: black; stroke-width: 2px; fill: white; fill-opacity: 0.95;"/><polyline points="30,0 30,250 " style="fill: none; stroke: black; stroke-width: 2px;"/><text class="djs-label" style="font-family: Arial, sans-serif; font-size: 12px;" transform="matrix(-1.83697e-16 -1 1 -1.83697e-16 0 250)"><tspan x="116.6328125" y="18.33203125">job</tspan></text></g><rect x="0" y="0" width="1406" height="250" class="djs-hit" style="fill: none; stroke-opacity: 0; stroke: white; stroke-width: 15px;"/><rect x="-6" y="-6" width="1418" height="262" class="djs-outline" style="fill: none;"/></g><g class="djs-children"><g class="djs-group"><g class="djs-element djs-shape" data-element-id="StartEvent_18wpy1k" style="display: block;" transform="translate(-25 277)"><g class="djs-visual"><circle cx="18" cy="18" r="18" style="stroke: black; stroke-width: 2px; fill: white;"/></g><rect x="0" y="0" width="36" height="36" class="djs-hit" style="fill: none; stroke-opacity: 0; stroke: white; stroke-width: 15px;"/><rect x="-6" y="-6" width="48" height="48" class="djs-outline" style="fill: none;"/></g></g><g class="djs-group"><g class="djs-element djs-shape" data-element-id="StartEvent_18wpy1k_label" style="display: none;" transform="translate(-7 313)"><g class="djs-visual"><text class="djs-label" transform="translate(0,0)" style="font-family: Arial, sans-serif; font-size: 11px;"><tspan x="45" y="11.84375"/></text></g><rect x="0" y="0" width="0" height="0" class="djs-hit" style="fill: none; stroke-opacity: 0; stroke: white; stroke-width: 15px;"/><rect x="-6" y="-6" width="12" height="12" class="djs-outline" style="fill: none;"/></g></g><g class="djs-group"><g class="djs-element djs-shape" data-element-id="EndEvent_16009d6" style="display: block;" transform="translate(1275 286)"><g class="djs-visual"><circle cx="18" cy="18" r="18" style="stroke: black; stroke-width: 4px; fill: white;"/></g><rect x="0" y="0" width="36" height="36" class="djs-hit" style="fill: none; stroke-opacity: 0; stroke: white; stroke-width: 15px;"/><rect x="-6" y="-6" width="48" height="48" class="djs-outline" style="fill: none;"/></g></g><g class="djs-group"><g class="djs-element djs-shape" data-element-id="EndEvent_16009d6_label" style="display: none;" transform="translate(1293 322)"><g class="djs-visual"><text class="djs-label" transform="translate(0,0)" style="font-family: Arial, sans-serif; font-size: 11px;"><tspan x="45" y="11.84375"/></text></g><rect x="0" y="0" width="0" height="0" class="djs-hit" style="fill: none; stroke-opacity: 0; stroke: white; stroke-width: 15px;"/><rect x="-6" y="-6" width="12" height="12" class="djs-outline" style="fill: none;"/></g></g><g class="djs-group"><g class="djs-element djs-shape selected" data-element-id="Task_1xuo4gm" style="display: block;" transform="translate(155 284)"><g class="djs-visual"><rect x="0" y="0" width="100" height="80" rx="10" ry="10" style="stroke: black; stroke-width: 2px; fill: white;"/><text class="djs-label" style="font-family: Arial, sans-serif; font-size: 12px;"><tspan x="35.3359375" y="43.33203125">step1</tspan></text></g><rect x="0" y="0" width="100" height="80" class="djs-hit" style="fill: none; stroke-opacity: 0; stroke: white; stroke-width: 15px;"/><rect x="-6" y="-6" width="112" height="92" class="djs-outline" style="fill: none;"/></g></g><g class="djs-group"><g class="djs-element djs-shape" data-element-id="SubProcess_1hbwvp6" style="display: block;" transform="translate(361 195)"><g class="djs-visual"><rect x="0" y="0" width="445" height="200" rx="10" ry="10" style="stroke: black; stroke-width: 2px; fill: white; fill-opacity: 0.95;"/><text class="djs-label" style="font-family: Arial, sans-serif; font-size: 12px;"><tspan x="211.7265625" y="18.328125">flow</tspan></text></g><rect x="0" y="0" width="445" height="200" class="djs-hit" style="fill: none; stroke-opacity: 0; stroke: white; stroke-width: 15px;"/><rect x="-6" y="-6" width="457" height="212" class="djs-outline" style="fill: none;"/></g><g class="djs-children"><g class="djs-group"><g class="djs-element djs-shape" data-element-id="Task_0ag0l3z" style="display: block;" transform="translate(434 250)"><g class="djs-visual"><rect x="0" y="0" width="100" height="80" rx="10" ry="10" style="stroke: black; stroke-width: 2px; fill: white;"/><text class="djs-label" style="font-family: Arial, sans-serif; font-size: 12px;"><tspan x="35.3359375" y="43.33203125">step2</tspan></text></g><rect x="0" y="0" width="100" height="80" class="djs-hit" style="fill: none; stroke-opacity: 0; stroke: white; stroke-width: 15px;"/><rect x="-6" y="-6" width="112" height="92" class="djs-outline" style="fill: none;"/></g></g><g class="djs-group"><g class="djs-element djs-shape" data-element-id="Task_13hn79p" style="display: block;" transform="translate(606 250)"><g class="djs-visual"><rect x="0" y="0" width="100" height="80" rx="10" ry="10" style="stroke: black; stroke-width: 2px; fill: white;"/><text class="djs-label" style="font-family: Arial, sans-serif; font-size: 12px;"><tspan x="35.3359375" y="43.33203125">step3</tspan></text></g><rect x="0" y="0" width="100" height="80" class="djs-hit" style="fill: none; stroke-opacity: 0; stroke: white; stroke-width: 15px;"/><rect x="-6" y="-6" width="112" height="92" class="djs-outline" style="fill: none;"/></g></g><g class="djs-group"><g class="djs-element djs-connection" data-element-id="SequenceFlow_0kieebp" style="display: block;"><g class="djs-visual"><path d="m  534,290L606,290 " style="fill: none; stroke-width: 2px; stroke: black; stroke-linejoin: round; marker-end: url('#sequenceflow-end');"/></g><polyline points="534,290 606,290 " class="djs-hit" style="fill: none; stroke-opacity: 0; stroke: white; stroke-width: 15px;"/><rect x="528" y="284" width="84" height="12" class="djs-outline" style="fill: none;"/></g></g><g class="djs-group"><g class="djs-element djs-shape" data-element-id="SequenceFlow_0kieebp_label" style="display: none;" transform="translate(570 265)"><g class="djs-visual"><text class="djs-label" transform="translate(0,0)" style="font-family: Arial, sans-serif; font-size: 11px;"><tspan x="45" y="11.84375"/></text></g><rect x="0" y="0" width="0" height="0" class="djs-hit" style="fill: none; stroke-opacity: 0; stroke: white; stroke-width: 15px;"/><rect x="-6" y="-6" width="12" height="12" class="djs-outline" style="fill: none;"/></g></g></g></g><g class="djs-group"><g class="djs-element djs-connection" data-element-id="SequenceFlow_03jxx7p" style="display: block;"><g class="djs-visual"><path d="m  11,295L84,295 L84,324 L155,324 " style="fill: none; stroke-width: 2px; stroke: black; stroke-linejoin: round; marker-end: url('#sequenceflow-end');"/></g><polyline points="11,295 84,295 84,324 155,324 " class="djs-hit" style="fill: none; stroke-opacity: 0; stroke: white; stroke-width: 15px;"/><rect x="5" y="289" width="156" height="41" class="djs-outline" style="fill: none;"/></g></g><g class="djs-group"><g class="djs-element djs-connection" data-element-id="SequenceFlow_04dkv0h" style="display: block;"><g class="djs-visual"><path d="m  806,295L1041,295 L1041,304 L1275,304 " style="fill: none; stroke-width: 2px; stroke: black; stroke-linejoin: round; marker-end: url('#sequenceflow-end');"/></g><polyline points="806,295 1041,295 1041,304 1275,304 " class="djs-hit" style="fill: none; stroke-opacity: 0; stroke: white; stroke-width: 15px;"/><rect x="800" y="289" width="481" height="21" class="djs-outline" style="fill: none;"/></g></g><g class="djs-group"><g class="djs-element djs-shape" data-element-id="SequenceFlow_04dkv0h_label" style="display: none;" transform="translate(1056 290)"><g class="djs-visual"><text class="djs-label" transform="translate(0,0)" style="font-family: Arial, sans-serif; font-size: 11px;"><tspan x="45" y="11.84375"/></text></g><rect x="0" y="0" width="0" height="0" class="djs-hit" style="fill: none; stroke-opacity: 0; stroke: white; stroke-width: 15px;"/><rect x="-6" y="-6" width="12" height="12" class="djs-outline" style="fill: none;"/></g></g><g class="djs-group"><g class="djs-element djs-connection" data-element-id="SequenceFlow_0iqmh2g" style="display: block;"><g class="djs-visual"><path d="m  255,324L309,324 L309,295 L361,295 " style="fill: none; stroke-width: 2px; stroke: black; stroke-linejoin: round; marker-end: url('#sequenceflow-end');"/></g><polyline points="255,324 309,324 309,295 361,295 " class="djs-hit" style="fill: none; stroke-opacity: 0; stroke: white; stroke-width: 15px;"/><rect x="249" y="289" width="118" height="41" class="djs-outline" style="fill: none;"/></g></g><g class="djs-group"><g class="djs-element djs-shape" data-element-id="SequenceFlow_03jxx7p_label" style="display: none;" transform="translate(99 309.5)"><g class="djs-visual"><text class="djs-label" transform="translate(0,0)" style="font-family: Arial, sans-serif; font-size: 11px;"><tspan x="45" y="11.84375"/></text></g><rect x="0" y="0" width="0" height="0" class="djs-hit" style="fill: none; stroke-opacity: 0; stroke: white; stroke-width: 15px;"/><rect x="-6" y="-6" width="12" height="12" class="djs-outline" style="fill: none;"/></g></g><g class="djs-group"><g class="djs-element djs-shape" data-element-id="SequenceFlow_0iqmh2g_label" style="display: none;" transform="translate(324 309.5)"><g class="djs-visual"><text class="djs-label" transform="translate(0,0)" style="font-family: Arial, sans-serif; font-size: 11px;"><tspan x="45" y="11.84375"/></text></g><rect x="0" y="0" width="0" height="0" class="djs-hit" style="fill: none; stroke-opacity: 0; stroke: white; stroke-width: 15px;"/><rect x="-6" y="-6" width="12" height="12" class="djs-outline" style="fill: none;"/></g></g></g></g><g class="djs-drag-group" style="pointer-events: none;" transform="translate(-2 37)"/></svg>